<?xml version="1.0" standalone="no"?>
<!DOCTYPE svg PUBLIC "-//W3C//DTD SVG 20010904//EN"
 "http://www.w3.org/TR/2001/REC-SVG-20010904/DTD/svg10.dtd">
<svg version="1.0" xmlns="http://www.w3.org/2000/svg"
 width="1238.000000pt" height="1238.000000pt" viewBox="0 0 1238.000000 1238.000000"
 preserveAspectRatio="xMidYMid meet">
<metadata>
Created by potrace 1.11, written by Peter Selinger 2001-2013
</metadata>
<g transform="translate(0.000000,1238.000000) scale(0.100000,-0.100000)"
fill="#000000" stroke="none">
<path d="M2759 12373 c0 -5 -1 -1376 -1 -3048 -1 -2882 -2 -3042 -18 -3075
-10 -19 -61 -109 -114 -199 -53 -90 -96 -165 -96 -167 0 -2 -16 -28 -35 -58
-19 -30 -35 -57 -35 -60 0 -3 -22 -43 -49 -88 -27 -46 -104 -177 -170 -293
l-121 -210 318 -5 319 -5 0 -2565 c1 -1411 2 -2572 2 -2580 1 -13 390 -15
3436 -15 l3435 0 1 25 c0 14 1 1391 1 3060 l0 3035 93 160 c351 605 525 910
525 919 0 8 -90 11 -307 11 l-308 0 -2 2555 c-1 1405 -2 2567 -2 2583 l-1 27
-3435 0 c-1889 0 -3435 -3 -3436 -7z m2829 -6180 l-3 -4938 -787 0 -788 0 0
45 c-1 60 -1 3660 -1 3778 l1 92 300 0 c165 0 300 3 300 6 0 5 -57 104 -280
489 -32 55 -117 203 -190 328 l-132 229 0 2441 c1 1343 1 2448 1 2455 1 9 166
12 791 12 l790 0 -2 -4937z m2795 2994 c-1 -1068 -2 -1949 -2 -1957 -1 -13
-41 -15 -302 -15 -165 0 -303 -3 -306 -8 -2 -4 9 -29 25 -55 16 -26 72 -121
124 -212 212 -369 334 -580 389 -672 31 -53 61 -107 65 -120 5 -16 10 -4813 5
-4883 -1 -7 -264 -10 -771 -10 l-770 0 0 4937 0 4938 773 0 772 0 -2 -1943z"/>
</g>
</svg>
